G04 ================== begin FILE IDENTIFICATION RECORD ==================*
G04 Layout Name:  C:/Temp/ECG/allegro/ECG_v5.brd*
G04 Film Name:    ASSEMBLY_TOP*
G04 File Format:  Gerber RS274X*
G04 File Origin:  Cadence Allegro 17.2-P019*
G04 Origin Date:  Sat Jan 27 12:25:04 2024*
G04 *
G04 Layer:  USER PART NUMBER/ASSEMBLY_TOP*
G04 Layer:  TOLERANCE/ASSEMBLY_TOP*
G04 Layer:  REF DES/ASSEMBLY_TOP*
G04 Layer:  PACKAGE GEOMETRY/ASSEMBLY_TOP*
G04 Layer:  DEVICE TYPE/ASSEMBLY_TOP*
G04 Layer:  COMPONENT VALUE/ASSEMBLY_TOP*
G04 Layer:  BOARD GEOMETRY/DESIGN_OUTLINE*
G04 *
G04 Offset:    (0.0000 0.0000)*
G04 Mirror:    No*
G04 Mode:      Positive*
G04 Rotation:  0*
G04 FullContactRelief:  No*
G04 UndefLineWidth:     0.0200*
G04 ================== end FILE IDENTIFICATION RECORD ====================*
%FSLAX25Y25*MOMM*%
%IR0*IPPOS*OFA0.00000B0.00000*MIA0B0*SFA1.00000B1.00000*%
%ADD10C,.2*%
%ADD11C,.127*%
%ADD12C,.02*%
%ADD13C,.08*%
G75*
%LPD*%
G75*
G54D10*
G01X-715000Y972500D02*
G03I-10000J0D01*
G54D11*
G01X-455000Y1060000D02*
X-775000D01*
Y1310000D01*
X-455000D01*
Y1060000D01*
G01X895000Y-445000D02*
G03I-175000J0D01*
G01X2687000Y850000D02*
Y1540000D01*
X1793000D01*
Y850000D01*
X2687000D01*
G54D12*
G01X-2330000Y-670000D02*
Y1595000D01*
X2755000D01*
X2820000D01*
Y-670000D01*
Y-800000D01*
X-2330000D01*
Y-670000D01*
G01X-1735000Y1060040D02*
Y970040D01*
X-2225000D01*
Y830040D01*
X-1735000D01*
Y780040D01*
X-2225000D01*
Y610040D01*
X-1961000D01*
Y310040D01*
X-2225000D01*
Y140040D01*
X-1961000D01*
Y-159960D01*
X-2225000D01*
Y-329960D01*
X-1962000D01*
X-1831000D01*
Y-379960D01*
X-1962000D01*
X-2275000D01*
Y-109960D01*
X-2011000D01*
Y90040D01*
X-2275000D01*
Y360040D01*
X-2011000D01*
Y560040D01*
X-2275000D01*
Y1060040D01*
X-1735000D01*
G01X-1785000Y1090040D02*
Y-429960D01*
X-2305000D01*
Y1090040D01*
X-1785000D01*
G01X-1605000Y15000D02*
X-1155000D01*
Y-315000D01*
X-1605000D01*
Y15000D01*
G01X-1380000Y152500D02*
Y247500D01*
X-1540000D01*
Y152500D01*
X-1380000D01*
G01X-1477500Y757540D02*
Y852540D01*
X-1637500D01*
Y757540D01*
X-1477500D01*
G01X-7500Y-652500D02*
Y-157500D01*
X-1052500D01*
Y-652500D01*
X-7500D01*
G01X-1090000Y337500D02*
Y432500D01*
X-1250000D01*
Y337500D01*
X-1090000D01*
G01Y52500D02*
Y147500D01*
X-1250000D01*
Y52500D01*
X-1090000D01*
G01X-1382500Y792540D02*
X-1287500D01*
Y952540D01*
X-1382500D01*
Y792540D01*
G01X-1090000Y587500D02*
Y682500D01*
X-1250000D01*
Y587500D01*
X-1090000D01*
G01X-1055000Y757540D02*
Y852540D01*
X-1215000D01*
Y757540D01*
X-1055000D01*
G01X-462500Y225000D02*
X-557500D01*
Y65000D01*
X-462500D01*
Y225000D01*
G01X-775000Y50000D02*
Y145000D01*
X-935000D01*
Y50000D01*
X-775000D01*
G01X-971000Y792540D02*
X-876000D01*
Y952540D01*
X-971000D01*
Y792540D01*
G01X-752500Y657540D02*
X-657500D01*
Y817540D01*
X-752500D01*
Y657540D01*
G01X-242500Y235000D02*
X-337500D01*
Y75000D01*
X-242500D01*
Y235000D01*
G01X-500270Y885270D02*
Y374730D01*
G01D02*
X10270D01*
G01X-135210D02*
X-104730D01*
G01D02*
X-135210D01*
G01X-185220D02*
X-154740D01*
G01D02*
X-185220D01*
G01X-235230D02*
X-204750D01*
G01D02*
X-235230D01*
G01X-285250D02*
X-254770D01*
G01D02*
X-285250D01*
G01X-335260D02*
X-304780D01*
G01D02*
X-335260D01*
G01X-385270D02*
X-354790D01*
G01D02*
X-385270D01*
G01X-435280D02*
X-404800D01*
G01D02*
X-435280D01*
G01X-500270Y470200D02*
Y439720D01*
G01D02*
Y470200D01*
G01Y520210D02*
Y489730D01*
G01D02*
Y520210D01*
G01Y570220D02*
Y539740D01*
G01D02*
Y570220D01*
G01Y620230D02*
Y589750D01*
G01D02*
Y620230D01*
G01Y670250D02*
Y639770D01*
G01D02*
Y670250D01*
G01Y720260D02*
Y689780D01*
G01D02*
Y720260D01*
G01Y770270D02*
Y739790D01*
G01D02*
Y770270D01*
G01Y820280D02*
Y789800D01*
G01D02*
Y820280D01*
G01X-187500Y1010000D02*
X-92500D01*
Y1170000D01*
X-187500D01*
Y1010000D01*
G01X-302500D02*
X-207500D01*
Y1170000D01*
X-302500D01*
Y1010000D01*
G01X10270Y885270D02*
X-500270D01*
G01X-404800D02*
X-435280D01*
G01D02*
X-404800D01*
G01X-354790D02*
X-385270D01*
G01D02*
X-354790D01*
G01X-304780D02*
X-335260D01*
G01D02*
X-304780D01*
G01X-254770D02*
X-285250D01*
G01D02*
X-254770D01*
G01X-204750D02*
X-235230D01*
G01D02*
X-204750D01*
G01X-154740D02*
X-185220D01*
G01D02*
X-154740D01*
G01X-104730D02*
X-135210D01*
G01D02*
X-104730D01*
G01X57500Y295000D02*
X-37500D01*
Y135000D01*
X57500D01*
Y295000D01*
G01X495000Y15000D02*
Y110000D01*
X335000D01*
Y15000D01*
X495000D01*
G01X212500Y515000D02*
X117500D01*
Y355000D01*
X212500D01*
Y515000D01*
G01X322500D02*
X227500D01*
Y355000D01*
X322500D01*
Y515000D01*
G01X300000Y557500D02*
Y652500D01*
X140000D01*
Y557500D01*
X300000D01*
G01X10270Y374730D02*
Y885270D01*
G01Y789800D02*
Y820280D01*
G01D02*
Y789800D01*
G01Y739790D02*
Y770270D01*
G01D02*
Y739790D01*
G01Y689780D02*
Y720260D01*
G01D02*
Y689780D01*
G01Y639770D02*
Y670250D01*
G01D02*
Y639770D01*
G01Y589750D02*
Y620230D01*
G01D02*
Y589750D01*
G01Y539740D02*
Y570220D01*
G01D02*
Y539740D01*
G01Y489730D02*
Y520210D01*
G01D02*
Y489730D01*
G01Y439720D02*
Y470200D01*
G01D02*
Y439720D01*
G01X-85200Y374730D02*
X-54720D01*
G01D02*
X-85200D01*
G01X57500Y945000D02*
X152500D01*
Y1105000D01*
X57500D01*
Y945000D01*
G01X-72500Y1010000D02*
X22500D01*
Y1170000D01*
X-72500D01*
Y1010000D01*
G01X175000Y1072500D02*
X270000D01*
Y1232500D01*
X175000D01*
Y1072500D01*
G01X-54720Y885270D02*
X-85200D01*
G01D02*
X-54720D01*
G01X270000Y1462500D02*
X175000D01*
Y1302500D01*
X270000D01*
Y1462500D01*
G01X630000Y262500D02*
Y357500D01*
X470000D01*
Y262500D01*
X630000D01*
G01X737500Y210000D02*
X642500D01*
Y50000D01*
X737500D01*
Y210000D01*
G01X757000Y432000D02*
X853000D01*
Y608000D01*
X757000D01*
Y432000D01*
G01X425000Y690000D02*
Y1060000D01*
X795000D01*
Y690000D01*
X425000D01*
G01X702500Y1195000D02*
X797500D01*
Y1355000D01*
X702500D01*
Y1195000D01*
G01X662500Y1355000D02*
X567500D01*
Y1195000D01*
X662500D01*
Y1355000D01*
G01X522500D02*
X427500D01*
Y1195000D01*
X522500D01*
Y1355000D01*
G01X912600Y322400D02*
Y17600D01*
G01X1217400Y322400D02*
X912600D01*
G01X1217400Y17600D02*
Y322400D01*
G01X912600Y17600D02*
X1217400D01*
G01Y283970D02*
Y256030D01*
G01Y233970D02*
Y206030D01*
G01Y183970D02*
Y156030D01*
G01Y133970D02*
Y106030D01*
G01Y83970D02*
Y56030D01*
G01X912600D02*
Y83970D01*
G01Y106030D02*
Y133970D01*
G01Y156030D02*
Y183970D01*
G01Y206030D02*
Y233970D01*
G01Y256030D02*
Y283970D01*
G01X1007500Y705000D02*
X1102500D01*
Y865000D01*
X1007500D01*
Y705000D01*
G01X1237500Y865000D02*
X1142500D01*
Y705000D01*
X1237500D01*
Y865000D01*
G01X1195000Y357500D02*
Y452500D01*
X1035000D01*
Y357500D01*
X1195000D01*
G01X875000Y1227500D02*
Y1132500D01*
X1035000D01*
Y1227500D01*
X875000D01*
G01X1102500Y1090000D02*
X1007500D01*
Y930000D01*
X1102500D01*
Y1090000D01*
G01X1178200Y1046200D02*
X1411800D01*
Y1523800D01*
X1178200D01*
Y1046200D01*
G01X1492890Y-778760D02*
X2237110D01*
Y-453640D01*
X1492890D01*
Y-778760D01*
G01X1832500Y-110000D02*
Y-15000D01*
X1672500D01*
Y-110000D01*
X1832500D01*
G01X1492500Y495000D02*
X1397500D01*
Y335000D01*
X1492500D01*
Y495000D01*
G01X1402500Y15000D02*
X1497500D01*
Y175000D01*
X1402500D01*
Y15000D01*
G01X1387500Y700000D02*
X1482500D01*
Y860000D01*
X1387500D01*
Y700000D01*
G01X1572500Y435000D02*
X1667500D01*
Y595000D01*
X1572500D01*
Y435000D01*
G01X1465000Y917500D02*
Y1012500D01*
X1305000D01*
Y917500D01*
X1465000D01*
G01X2172500Y130000D02*
X2077500D01*
Y-30000D01*
X2172500D01*
Y130000D01*
G01X2255000Y222500D02*
Y317500D01*
X2095000D01*
Y222500D01*
X2255000D01*
G01X1755000Y330000D02*
Y20000D01*
X1935000D01*
Y330000D01*
X1755000D01*
G01X1995000Y397500D02*
Y492500D01*
X1835000D01*
Y397500D01*
X1995000D01*
G01X1740290Y738450D02*
Y593450D01*
X2080290D01*
Y738450D01*
X1740290D01*
G01X2784790Y399640D02*
X2335210D01*
Y-189640D01*
X2784790D01*
Y399640D01*
G01X2574710Y591550D02*
Y736550D01*
X2234710D01*
Y591550D01*
X2574710D01*
G54D13*
G01X-1883080Y455040D02*
X-1869750Y505040D01*
X-1856420Y455040D01*
G01X-1861220Y472540D02*
X-1878280D01*
G01X-1830250Y455040D02*
Y505040D01*
X-1836650Y495040D01*
G01Y455040D02*
X-1823850D01*
G01X-1490420Y175000D02*
Y225000D01*
X-1477080D01*
X-1472820Y222500D01*
X-1470150Y219170D01*
X-1469080Y212500D01*
X-1470150Y205830D01*
X-1473350Y201670D01*
X-1477080Y199170D01*
X-1490420D01*
G01X-1477080D02*
X-1469080Y175000D01*
G01X-1451980Y185000D02*
X-1448780Y179170D01*
X-1444520Y175830D01*
X-1439720Y175000D01*
X-1435450Y175830D01*
X-1431180Y180000D01*
X-1428520Y185000D01*
X-1427980Y190000D01*
X-1429050Y195830D01*
X-1432780Y200000D01*
X-1436520Y201670D01*
X-1441320D01*
G01X-1436520D02*
X-1433320Y204170D01*
X-1430650Y208330D01*
X-1429580Y213330D01*
X-1430650Y218330D01*
X-1433320Y222500D01*
X-1438120Y225000D01*
X-1442920Y224170D01*
X-1447720Y220830D01*
G01X-1580730Y55000D02*
Y105000D01*
X-1570070D01*
X-1565800Y102500D01*
X-1562600Y99170D01*
X-1559930Y94170D01*
X-1557800Y88330D01*
X-1557270Y80000D01*
X-1557800Y71670D01*
X-1559930Y65830D01*
X-1562600Y60830D01*
X-1565800Y57500D01*
X-1570070Y55000D01*
X-1580730D01*
G01X-1529500D02*
Y105000D01*
X-1535900Y95000D01*
G01Y55000D02*
X-1523100D01*
G01X-1581270Y827870D02*
X-1584470Y830370D01*
X-1588200Y832040D01*
X-1592470D01*
X-1597270Y829540D01*
X-1601000Y825370D01*
X-1603670Y820370D01*
X-1605800Y812040D01*
X-1606330Y804540D01*
X-1605270Y797040D01*
X-1603670Y792040D01*
X-1600470Y787040D01*
X-1596730Y783710D01*
X-1593000Y782040D01*
X-1589270D01*
X-1585530Y783710D01*
X-1582330Y786210D01*
X-1579670Y789540D01*
G01X-1547100Y782040D02*
Y832040D01*
X-1566830Y796210D01*
X-1540170D01*
G01X-1193770Y407830D02*
X-1196970Y410330D01*
X-1200700Y412000D01*
X-1204970D01*
X-1209770Y409500D01*
X-1213500Y405330D01*
X-1216170Y400330D01*
X-1218300Y392000D01*
X-1218830Y384500D01*
X-1217770Y377000D01*
X-1216170Y372000D01*
X-1212970Y367000D01*
X-1209230Y363670D01*
X-1205500Y362000D01*
X-1201770D01*
X-1198030Y363670D01*
X-1194830Y366170D01*
X-1192170Y369500D01*
G01X-1177730Y372000D02*
X-1174530Y366170D01*
X-1170270Y362830D01*
X-1165470Y362000D01*
X-1161200Y362830D01*
X-1156930Y367000D01*
X-1154270Y372000D01*
X-1153730Y377000D01*
X-1154800Y382830D01*
X-1158530Y387000D01*
X-1162270Y388670D01*
X-1167070D01*
G01X-1162270D02*
X-1159070Y391170D01*
X-1156400Y395330D01*
X-1155330Y400330D01*
X-1156400Y405330D01*
X-1159070Y409500D01*
X-1163870Y412000D01*
X-1168670Y411170D01*
X-1173470Y407830D01*
G01X-1200420Y75000D02*
Y125000D01*
X-1187080D01*
X-1182820Y122500D01*
X-1180150Y119170D01*
X-1179080Y112500D01*
X-1180150Y105830D01*
X-1183350Y101670D01*
X-1187080Y99170D01*
X-1200420D01*
G01X-1187080D02*
X-1179080Y75000D01*
G01X-1160380Y116670D02*
X-1157180Y121670D01*
X-1153450Y124170D01*
X-1149180Y125000D01*
X-1143850Y123330D01*
X-1140120Y119170D01*
X-1139050Y114170D01*
X-1139580Y109170D01*
X-1141720Y105000D01*
X-1152380Y96670D01*
X-1157180Y90830D01*
X-1160380Y82500D01*
X-1161450Y75000D01*
X-1139050D01*
G01X-1193770Y657830D02*
X-1196970Y660330D01*
X-1200700Y662000D01*
X-1204970D01*
X-1209770Y659500D01*
X-1213500Y655330D01*
X-1216170Y650330D01*
X-1218300Y642000D01*
X-1218830Y634500D01*
X-1217770Y627000D01*
X-1216170Y622000D01*
X-1212970Y617000D01*
X-1209230Y613670D01*
X-1205500Y612000D01*
X-1201770D01*
X-1198030Y613670D01*
X-1194830Y616170D01*
X-1192170Y619500D01*
G01X-1176130Y653670D02*
X-1172930Y658670D01*
X-1169200Y661170D01*
X-1164930Y662000D01*
X-1159600Y660330D01*
X-1155870Y656170D01*
X-1154800Y651170D01*
X-1155330Y646170D01*
X-1157470Y642000D01*
X-1168130Y633670D01*
X-1172930Y627830D01*
X-1176130Y619500D01*
X-1177200Y612000D01*
X-1154800D01*
G01X-1160420Y835040D02*
Y785040D01*
X-1139080D01*
G01X-1120380Y826710D02*
X-1117180Y831710D01*
X-1113450Y834210D01*
X-1109180Y835040D01*
X-1103850Y833370D01*
X-1100120Y829210D01*
X-1099050Y824210D01*
X-1099580Y819210D01*
X-1101720Y815040D01*
X-1112380Y806710D01*
X-1117180Y800870D01*
X-1120380Y792540D01*
X-1121450Y785040D01*
X-1099050D01*
G01X-1312170Y896310D02*
X-1309670Y899510D01*
X-1308000Y903240D01*
Y907510D01*
X-1310500Y912310D01*
X-1314670Y916040D01*
X-1319670Y918710D01*
X-1328000Y920840D01*
X-1335500Y921370D01*
X-1343000Y920310D01*
X-1348000Y918710D01*
X-1353000Y915510D01*
X-1356330Y911770D01*
X-1358000Y908040D01*
Y904310D01*
X-1356330Y900570D01*
X-1353830Y897370D01*
X-1350500Y894710D01*
G01X-1337170Y878670D02*
X-1331330Y874940D01*
X-1328000Y871740D01*
X-1326330Y867470D01*
X-1328000Y863740D01*
X-1331330Y861070D01*
X-1336330Y858940D01*
X-1342170Y858410D01*
X-1347170Y858940D01*
X-1352170Y861070D01*
X-1356330Y864270D01*
X-1358000Y868010D01*
X-1356330Y872270D01*
X-1351330Y876010D01*
X-1343830Y878140D01*
X-1335500Y878670D01*
X-1324670Y877610D01*
X-1318830Y876010D01*
X-1313000Y873340D01*
X-1308830Y869610D01*
X-1308000Y865870D01*
X-1309670Y862140D01*
X-1313830Y859470D01*
G01X-950420Y-540000D02*
X-947750Y-545000D01*
X-944550Y-548330D01*
X-940820Y-550000D01*
X-936550Y-548330D01*
X-933350Y-545000D01*
X-930150Y-540000D01*
X-929080Y-533330D01*
Y-500000D01*
G01X-900250Y-550000D02*
Y-500000D01*
X-906650Y-510000D01*
G01Y-550000D02*
X-893850D01*
G01X-532830Y121230D02*
X-535330Y118030D01*
X-537000Y114300D01*
Y110030D01*
X-534500Y105230D01*
X-530330Y101500D01*
X-525330Y98830D01*
X-517000Y96700D01*
X-509500Y96170D01*
X-502000Y97230D01*
X-497000Y98830D01*
X-492000Y102030D01*
X-488670Y105770D01*
X-487000Y109500D01*
Y113230D01*
X-488670Y116970D01*
X-491170Y120170D01*
X-494500Y122830D01*
G01X-487000Y149000D02*
X-487830Y152730D01*
X-490330Y157000D01*
X-494500Y159670D01*
X-500330Y160730D01*
X-506170Y159670D01*
X-511170Y156470D01*
X-513670Y151670D01*
Y146330D01*
X-515330Y143130D01*
X-519500Y140470D01*
X-525330Y139400D01*
X-531170Y141000D01*
X-535330Y144730D01*
X-537000Y149000D01*
X-535330Y153270D01*
X-531170Y157000D01*
X-525330Y158600D01*
X-519500Y157530D01*
X-515330Y154870D01*
X-513670Y151670D01*
Y146330D01*
X-511170Y141530D01*
X-506170Y138330D01*
X-500330Y137270D01*
X-494500Y138330D01*
X-490330Y141000D01*
X-487830Y145270D01*
X-487000Y149000D01*
G01X-880420Y72500D02*
Y122500D01*
X-867080D01*
X-862820Y120000D01*
X-860150Y116670D01*
X-859080Y110000D01*
X-860150Y103330D01*
X-863350Y99170D01*
X-867080Y96670D01*
X-880420D01*
G01X-867080D02*
X-859080Y72500D01*
G01X-830250D02*
Y122500D01*
X-836650Y112500D01*
G01Y72500D02*
X-823850D01*
G01X-725000Y697870D02*
X-675000D01*
Y719210D01*
G01Y748040D02*
X-725000D01*
X-715000Y741640D01*
G01X-675000D02*
Y754440D01*
G01X-749750Y460000D02*
Y482500D01*
X-760420Y510000D01*
G01X-739080D02*
X-749750Y482500D01*
G01X-720380Y501670D02*
X-717180Y506670D01*
X-713450Y509170D01*
X-709180Y510000D01*
X-703850Y508330D01*
X-700120Y504170D01*
X-699050Y499170D01*
X-699580Y494170D01*
X-701720Y490000D01*
X-712380Y481670D01*
X-717180Y475830D01*
X-720380Y467500D01*
X-721450Y460000D01*
X-699050D01*
G01X-634750Y1160000D02*
Y1182500D01*
X-645420Y1210000D01*
G01X-624080D02*
X-634750Y1182500D01*
G01X-595250Y1160000D02*
Y1210000D01*
X-601650Y1200000D01*
G01Y1160000D02*
X-588850D01*
G01X-900670Y896310D02*
X-898170Y899510D01*
X-896500Y903240D01*
Y907510D01*
X-899000Y912310D01*
X-903170Y916040D01*
X-908170Y918710D01*
X-916500Y920840D01*
X-924000Y921370D01*
X-931500Y920310D01*
X-936500Y918710D01*
X-941500Y915510D01*
X-944830Y911770D01*
X-946500Y908040D01*
Y904310D01*
X-944830Y900570D01*
X-942330Y897370D01*
X-939000Y894710D01*
G01Y880270D02*
X-943170Y877070D01*
X-945670Y873340D01*
X-946500Y868540D01*
X-944830Y863740D01*
X-941500Y860010D01*
X-935670Y857340D01*
X-929000Y856810D01*
X-922330Y857870D01*
X-918170Y860540D01*
X-914830Y864270D01*
X-914000Y868010D01*
X-914830Y871740D01*
X-918170Y876540D01*
X-896500Y874940D01*
Y860540D01*
G01X-312830Y131230D02*
X-315330Y128030D01*
X-317000Y124300D01*
Y120030D01*
X-314500Y115230D01*
X-310330Y111500D01*
X-305330Y108830D01*
X-297000Y106700D01*
X-289500Y106170D01*
X-282000Y107230D01*
X-277000Y108830D01*
X-272000Y112030D01*
X-268670Y115770D01*
X-267000Y119500D01*
Y123230D01*
X-268670Y126970D01*
X-271170Y130170D01*
X-274500Y132830D01*
G01X-267000Y157930D02*
X-277830Y159000D01*
X-287000Y160600D01*
X-295330Y162730D01*
X-304500Y165400D01*
X-317000Y169670D01*
Y148330D01*
G01X-277750Y653330D02*
Y617500D01*
X-275620Y610000D01*
X-271350Y605000D01*
X-266020Y603330D01*
X-260690Y605000D01*
X-256420Y610000D01*
X-254290Y617500D01*
Y653330D01*
G01X-226520Y603330D02*
Y653330D01*
X-232920Y643330D01*
G01Y603330D02*
X-220120D01*
G01X-117170Y1113770D02*
X-114670Y1116970D01*
X-113000Y1120700D01*
Y1124970D01*
X-115500Y1129770D01*
X-119670Y1133500D01*
X-124670Y1136170D01*
X-133000Y1138300D01*
X-140500Y1138830D01*
X-148000Y1137770D01*
X-153000Y1136170D01*
X-158000Y1132970D01*
X-161330Y1129230D01*
X-163000Y1125500D01*
Y1121770D01*
X-161330Y1118030D01*
X-158830Y1114830D01*
X-155500Y1112170D01*
G01X-163000Y1086000D02*
X-113000D01*
X-123000Y1092400D01*
G01X-163000D02*
Y1079600D01*
G01X-121330Y1056630D02*
X-116330Y1053430D01*
X-113830Y1049700D01*
X-113000Y1045430D01*
X-114670Y1040100D01*
X-118830Y1036370D01*
X-123830Y1035300D01*
X-128830Y1035830D01*
X-133000Y1037970D01*
X-141330Y1048630D01*
X-147170Y1053430D01*
X-155500Y1056630D01*
X-163000Y1057700D01*
Y1035300D01*
G01X-232170Y1113770D02*
X-229670Y1116970D01*
X-228000Y1120700D01*
Y1124970D01*
X-230500Y1129770D01*
X-234670Y1133500D01*
X-239670Y1136170D01*
X-248000Y1138300D01*
X-255500Y1138830D01*
X-263000Y1137770D01*
X-268000Y1136170D01*
X-273000Y1132970D01*
X-276330Y1129230D01*
X-278000Y1125500D01*
Y1121770D01*
X-276330Y1118030D01*
X-273830Y1114830D01*
X-270500Y1112170D01*
G01X-278000Y1086000D02*
X-228000D01*
X-238000Y1092400D01*
G01X-278000D02*
Y1079600D01*
G01Y1040100D02*
X-228000D01*
X-263830Y1059830D01*
Y1033170D01*
G01X30000Y254670D02*
X-20000D01*
Y233330D01*
G01X-10000Y216230D02*
X-15830Y213030D01*
X-19170Y208770D01*
X-20000Y203970D01*
X-19170Y199700D01*
X-15000Y195430D01*
X-10000Y192770D01*
X-5000Y192230D01*
X830Y193300D01*
X5000Y197030D01*
X6670Y200770D01*
Y205570D01*
G01Y200770D02*
X9170Y197570D01*
X13330Y194900D01*
X18330Y193830D01*
X23330Y194900D01*
X27500Y197570D01*
X30000Y202370D01*
X29170Y207170D01*
X25830Y211970D01*
G01X142170Y411230D02*
X139670Y408030D01*
X138000Y404300D01*
Y400030D01*
X140500Y395230D01*
X144670Y391500D01*
X149670Y388830D01*
X158000Y386700D01*
X165500Y386170D01*
X173000Y387230D01*
X178000Y388830D01*
X183000Y392030D01*
X186330Y395770D01*
X188000Y399500D01*
Y403230D01*
X186330Y406970D01*
X183830Y410170D01*
X180500Y412830D01*
G01X188000Y439000D02*
X138000D01*
X148000Y432600D01*
G01X188000D02*
Y445400D01*
G01X138000Y478500D02*
X139670Y474230D01*
X143830Y471030D01*
X148830Y468900D01*
X155500Y467300D01*
X163000Y466770D01*
X170500Y467300D01*
X177170Y468900D01*
X182170Y471030D01*
X186330Y474230D01*
X188000Y478500D01*
X186330Y482770D01*
X182170Y485970D01*
X177170Y488100D01*
X170500Y489700D01*
X163000Y490230D01*
X155500Y489700D01*
X148830Y488100D01*
X143830Y485970D01*
X139670Y482770D01*
X138000Y478500D01*
G01X252170Y411230D02*
X249670Y408030D01*
X248000Y404300D01*
Y400030D01*
X250500Y395230D01*
X254670Y391500D01*
X259670Y388830D01*
X268000Y386700D01*
X275500Y386170D01*
X283000Y387230D01*
X288000Y388830D01*
X293000Y392030D01*
X296330Y395770D01*
X298000Y399500D01*
Y403230D01*
X296330Y406970D01*
X293830Y410170D01*
X290500Y412830D01*
G01X298000Y439000D02*
X248000D01*
X258000Y432600D01*
G01X298000D02*
Y445400D01*
G01Y478500D02*
X248000D01*
X258000Y472100D01*
G01X298000D02*
Y484900D01*
G01X189580Y580000D02*
Y630000D01*
X202920D01*
X207180Y627500D01*
X209850Y624170D01*
X210920Y617500D01*
X209850Y610830D01*
X206650Y606670D01*
X202920Y604170D01*
X189580D01*
G01X202920D02*
X210920Y580000D01*
G01X246150D02*
Y630000D01*
X226420Y594170D01*
X253080D01*
G01X127830Y1048770D02*
X130330Y1051970D01*
X132000Y1055700D01*
Y1059970D01*
X129500Y1064770D01*
X125330Y1068500D01*
X120330Y1071170D01*
X112000Y1073300D01*
X104500Y1073830D01*
X97000Y1072770D01*
X92000Y1071170D01*
X87000Y1067970D01*
X83670Y1064230D01*
X82000Y1060500D01*
Y1056770D01*
X83670Y1053030D01*
X86170Y1049830D01*
X89500Y1047170D01*
G01X87830Y1030070D02*
X83670Y1026330D01*
X82000Y1022070D01*
X83670Y1017800D01*
X88670Y1014070D01*
X96170Y1011400D01*
X103670Y1010330D01*
X112830D01*
X120330Y1011400D01*
X127000Y1014070D01*
X130330Y1017270D01*
X132000Y1021000D01*
X130330Y1025270D01*
X127000Y1028470D01*
X122000Y1030600D01*
X115330Y1031670D01*
X109500Y1030600D01*
X103670Y1027930D01*
X100330Y1024730D01*
X99500Y1021000D01*
X101170Y1016730D01*
X105330Y1013530D01*
X112830Y1010330D01*
G01X-2170Y1113770D02*
X330Y1116970D01*
X2000Y1120700D01*
Y1124970D01*
X-500Y1129770D01*
X-4670Y1133500D01*
X-9670Y1136170D01*
X-18000Y1138300D01*
X-25500Y1138830D01*
X-33000Y1137770D01*
X-38000Y1136170D01*
X-43000Y1132970D01*
X-46330Y1129230D01*
X-48000Y1125500D01*
Y1121770D01*
X-46330Y1118030D01*
X-43830Y1114830D01*
X-40500Y1112170D01*
G01X-48000Y1086000D02*
X2000D01*
X-8000Y1092400D01*
G01X-48000D02*
Y1079600D01*
G01X-38000Y1058230D02*
X-43830Y1055030D01*
X-47170Y1050770D01*
X-48000Y1045970D01*
X-47170Y1041700D01*
X-43000Y1037430D01*
X-38000Y1034770D01*
X-33000Y1034230D01*
X-27170Y1035300D01*
X-23000Y1039030D01*
X-21330Y1042770D01*
Y1047570D01*
G01Y1042770D02*
X-18830Y1039570D01*
X-14670Y1036900D01*
X-9670Y1035830D01*
X-4670Y1036900D01*
X-500Y1039570D01*
X2000Y1044370D01*
X1170Y1049170D01*
X-2170Y1053970D01*
G01X245330Y1176270D02*
X247830Y1179470D01*
X249500Y1183200D01*
Y1187470D01*
X247000Y1192270D01*
X242830Y1196000D01*
X237830Y1198670D01*
X229500Y1200800D01*
X222000Y1201330D01*
X214500Y1200270D01*
X209500Y1198670D01*
X204500Y1195470D01*
X201170Y1191730D01*
X199500Y1188000D01*
Y1184270D01*
X201170Y1180530D01*
X203670Y1177330D01*
X207000Y1174670D01*
G01X241170Y1158630D02*
X246170Y1155430D01*
X248670Y1151700D01*
X249500Y1147430D01*
X247830Y1142100D01*
X243670Y1138370D01*
X238670Y1137300D01*
X233670Y1137830D01*
X229500Y1139970D01*
X221170Y1150630D01*
X215330Y1155430D01*
X207000Y1158630D01*
X199500Y1159700D01*
Y1137300D01*
G01Y1109000D02*
X249500D01*
X239500Y1115400D01*
G01X199500D02*
Y1102600D01*
G01X192500Y1422170D02*
X242500D01*
Y1408830D01*
X240000Y1404570D01*
X236670Y1401900D01*
X230000Y1400830D01*
X223330Y1401900D01*
X219170Y1405100D01*
X216670Y1408830D01*
Y1422170D01*
G01Y1408830D02*
X192500Y1400830D01*
G01Y1372000D02*
X242500D01*
X232500Y1378400D01*
G01X192500D02*
Y1365600D01*
G01Y1326100D02*
X242500D01*
X206670Y1345830D01*
Y1319170D01*
G01X656220Y-464580D02*
X660490Y-468750D01*
X665290Y-471250D01*
X669550D01*
X673820Y-468750D01*
X677020Y-464580D01*
X678620Y-458750D01*
X677550Y-452920D01*
X674890Y-447920D01*
X670090Y-444580D01*
X663690Y-442920D01*
X659950Y-439580D01*
X658350Y-433750D01*
X659420Y-427920D01*
X662090Y-423750D01*
X665820Y-421250D01*
X669550D01*
X673290Y-422920D01*
X676490Y-427080D01*
G01X696790Y-429580D02*
X699990Y-424580D01*
X703720Y-422080D01*
X707990Y-421250D01*
X713320Y-422920D01*
X717050Y-427080D01*
X718120Y-432080D01*
X717590Y-437080D01*
X715450Y-441250D01*
X704790Y-449580D01*
X699990Y-455420D01*
X696790Y-463750D01*
X695720Y-471250D01*
X718120D01*
G01X526230Y332830D02*
X523030Y335330D01*
X519300Y337000D01*
X515030D01*
X510230Y334500D01*
X506500Y330330D01*
X503830Y325330D01*
X501700Y317000D01*
X501170Y309500D01*
X502230Y302000D01*
X503830Y297000D01*
X507030Y292000D01*
X510770Y288670D01*
X514500Y287000D01*
X518230D01*
X521970Y288670D01*
X525170Y291170D01*
X527830Y294500D01*
G01X554000Y287000D02*
Y337000D01*
X547600Y327000D01*
G01Y287000D02*
X560400D01*
G01X667170Y106230D02*
X664670Y103030D01*
X663000Y99300D01*
Y95030D01*
X665500Y90230D01*
X669670Y86500D01*
X674670Y83830D01*
X683000Y81700D01*
X690500Y81170D01*
X698000Y82230D01*
X703000Y83830D01*
X708000Y87030D01*
X711330Y90770D01*
X713000Y94500D01*
Y98230D01*
X711330Y101970D01*
X708830Y105170D01*
X705500Y107830D01*
G01X713000Y134000D02*
X663000D01*
X673000Y127600D01*
G01X713000D02*
Y140400D01*
G01Y172430D02*
X702170Y173500D01*
X693000Y175100D01*
X684670Y177230D01*
X675500Y179900D01*
X663000Y184170D01*
Y162830D01*
G01X389580Y37500D02*
Y87500D01*
X402920D01*
X407180Y85000D01*
X409850Y81670D01*
X410920Y75000D01*
X409850Y68330D01*
X406650Y64170D01*
X402920Y61670D01*
X389580D01*
G01X402920D02*
X410920Y37500D01*
G01X428020Y45000D02*
X431220Y40830D01*
X434950Y38330D01*
X439750Y37500D01*
X444550Y39170D01*
X448280Y42500D01*
X450950Y48330D01*
X451480Y55000D01*
X450420Y61670D01*
X447750Y65830D01*
X444020Y69170D01*
X440280Y70000D01*
X436550Y69170D01*
X431750Y65830D01*
X433350Y87500D01*
X447750D01*
G01X835000Y475370D02*
X785000D01*
Y495630D01*
G01X809170Y488170D02*
Y475370D01*
G01X808330Y529270D02*
X805830Y531400D01*
X801670Y533000D01*
X795830Y534070D01*
X790830Y533000D01*
X787500Y530870D01*
X785000Y527130D01*
Y512730D01*
X835000D01*
Y530330D01*
X831670Y534070D01*
X826670Y536200D01*
X820830Y537270D01*
X815000Y536200D01*
X810000Y533000D01*
X808330Y529270D01*
Y512730D01*
G01X835000Y564500D02*
X785000D01*
X795000Y558100D01*
G01X835000D02*
Y570900D01*
G01X780000Y1235330D02*
X730000D01*
Y1248670D01*
X732500Y1252930D01*
X735830Y1255600D01*
X742500Y1256670D01*
X749170Y1255600D01*
X753330Y1252400D01*
X755830Y1248670D01*
Y1235330D01*
G01Y1248670D02*
X780000Y1256670D01*
G01Y1285500D02*
X730000D01*
X740000Y1279100D01*
G01X780000D02*
Y1291900D01*
G01X730000Y1325000D02*
X731670Y1320730D01*
X735830Y1317530D01*
X740830Y1315400D01*
X747500Y1313800D01*
X755000Y1313270D01*
X762500Y1313800D01*
X769170Y1315400D01*
X774170Y1317530D01*
X778330Y1320730D01*
X780000Y1325000D01*
X778330Y1329270D01*
X774170Y1332470D01*
X769170Y1334600D01*
X762500Y1336200D01*
X755000Y1336730D01*
X747500Y1336200D01*
X740830Y1334600D01*
X735830Y1332470D01*
X731670Y1329270D01*
X730000Y1325000D01*
G01X585000Y1314670D02*
X635000D01*
Y1301330D01*
X632500Y1297070D01*
X629170Y1294400D01*
X622500Y1293330D01*
X615830Y1294400D01*
X611670Y1297600D01*
X609170Y1301330D01*
Y1314670D01*
G01Y1301330D02*
X585000Y1293330D01*
G01Y1264500D02*
X635000D01*
X625000Y1270900D01*
G01X585000D02*
Y1258100D01*
G01X626670Y1235130D02*
X631670Y1231930D01*
X634170Y1228200D01*
X635000Y1223930D01*
X633330Y1218600D01*
X629170Y1214870D01*
X624170Y1213800D01*
X619170Y1214330D01*
X615000Y1216470D01*
X606670Y1227130D01*
X600830Y1231930D01*
X592500Y1235130D01*
X585000Y1236200D01*
Y1213800D01*
G01X445000Y1314670D02*
X495000D01*
Y1301330D01*
X492500Y1297070D01*
X489170Y1294400D01*
X482500Y1293330D01*
X475830Y1294400D01*
X471670Y1297600D01*
X469170Y1301330D01*
Y1314670D01*
G01Y1301330D02*
X445000Y1293330D01*
G01Y1264500D02*
X495000D01*
X485000Y1270900D01*
G01X445000D02*
Y1258100D01*
G01X455000Y1236730D02*
X449170Y1233530D01*
X445830Y1229270D01*
X445000Y1224470D01*
X445830Y1220200D01*
X450000Y1215930D01*
X455000Y1213270D01*
X460000Y1212730D01*
X465830Y1213800D01*
X470000Y1217530D01*
X471670Y1221270D01*
Y1226070D01*
G01Y1221270D02*
X474170Y1218070D01*
X478330Y1215400D01*
X483330Y1214330D01*
X488330Y1215400D01*
X492500Y1218070D01*
X495000Y1222870D01*
X494170Y1227670D01*
X490830Y1232470D01*
G01X545690Y898750D02*
Y862920D01*
X547820Y855420D01*
X552090Y850420D01*
X557420Y848750D01*
X562750Y850420D01*
X567020Y855420D01*
X569150Y862920D01*
Y898750D01*
G01X603320Y848750D02*
Y898750D01*
X583590Y862920D01*
X610250D01*
G01X995690Y193750D02*
Y157920D01*
X997820Y150420D01*
X1002090Y145420D01*
X1007420Y143750D01*
X1012750Y145420D01*
X1017020Y150420D01*
X1019150Y157920D01*
Y193750D01*
G01X1036790Y185420D02*
X1039990Y190420D01*
X1043720Y192920D01*
X1047990Y193750D01*
X1053320Y192080D01*
X1057050Y187920D01*
X1058120Y182920D01*
X1057590Y177920D01*
X1055450Y173750D01*
X1044790Y165420D01*
X1039990Y159580D01*
X1036790Y151250D01*
X1035720Y143750D01*
X1058120D01*
G01X1077830Y808770D02*
X1080330Y811970D01*
X1082000Y815700D01*
Y819970D01*
X1079500Y824770D01*
X1075330Y828500D01*
X1070330Y831170D01*
X1062000Y833300D01*
X1054500Y833830D01*
X1047000Y832770D01*
X1042000Y831170D01*
X1037000Y827970D01*
X1033670Y824230D01*
X1032000Y820500D01*
Y816770D01*
X1033670Y813030D01*
X1036170Y809830D01*
X1039500Y807170D01*
G01X1073670Y791130D02*
X1078670Y787930D01*
X1081170Y784200D01*
X1082000Y779930D01*
X1080330Y774600D01*
X1076170Y770870D01*
X1071170Y769800D01*
X1066170Y770330D01*
X1062000Y772470D01*
X1053670Y783130D01*
X1047830Y787930D01*
X1039500Y791130D01*
X1032000Y792200D01*
Y769800D01*
G01X1042000Y753230D02*
X1036170Y750030D01*
X1032830Y745770D01*
X1032000Y740970D01*
X1032830Y736700D01*
X1037000Y732430D01*
X1042000Y729770D01*
X1047000Y729230D01*
X1052830Y730300D01*
X1057000Y734030D01*
X1058670Y737770D01*
Y742570D01*
G01Y737770D02*
X1061170Y734570D01*
X1065330Y731900D01*
X1070330Y730830D01*
X1075330Y731900D01*
X1079500Y734570D01*
X1082000Y739370D01*
X1081170Y744170D01*
X1077830Y748970D01*
G01X1160000Y824670D02*
X1210000D01*
Y811330D01*
X1207500Y807070D01*
X1204170Y804400D01*
X1197500Y803330D01*
X1190830Y804400D01*
X1186670Y807600D01*
X1184170Y811330D01*
Y824670D01*
G01Y811330D02*
X1160000Y803330D01*
G01Y774500D02*
X1210000D01*
X1200000Y780900D01*
G01X1160000D02*
Y768100D01*
G01X1180830Y745130D02*
X1186670Y741400D01*
X1190000Y738200D01*
X1191670Y733930D01*
X1190000Y730200D01*
X1186670Y727530D01*
X1181670Y725400D01*
X1175830Y724870D01*
X1170830Y725400D01*
X1165830Y727530D01*
X1161670Y730730D01*
X1160000Y734470D01*
X1161670Y738730D01*
X1166670Y742470D01*
X1174170Y744600D01*
X1182500Y745130D01*
X1193330Y744070D01*
X1199170Y742470D01*
X1205000Y739800D01*
X1209170Y736070D01*
X1210000Y732330D01*
X1208330Y728600D01*
X1204170Y725930D01*
G01X1084580Y375000D02*
Y425000D01*
X1097920D01*
X1102180Y422500D01*
X1104850Y419170D01*
X1105920Y412500D01*
X1104850Y405830D01*
X1101650Y401670D01*
X1097920Y399170D01*
X1084580D01*
G01X1097920D02*
X1105920Y375000D01*
G01X1124620Y395830D02*
X1128350Y401670D01*
X1131550Y405000D01*
X1135820Y406670D01*
X1139550Y405000D01*
X1142220Y401670D01*
X1144350Y396670D01*
X1144880Y390830D01*
X1144350Y385830D01*
X1142220Y380830D01*
X1139020Y376670D01*
X1135280Y375000D01*
X1131020Y376670D01*
X1127280Y381670D01*
X1125150Y389170D01*
X1124620Y397500D01*
X1125680Y408330D01*
X1127280Y414170D01*
X1129950Y420000D01*
X1133680Y424170D01*
X1137420Y425000D01*
X1141150Y423330D01*
X1143820Y419170D01*
G01X927230Y1200830D02*
X924030Y1203330D01*
X920300Y1205000D01*
X916030D01*
X911230Y1202500D01*
X907500Y1198330D01*
X904830Y1193330D01*
X902700Y1185000D01*
X902170Y1177500D01*
X903230Y1170000D01*
X904830Y1165000D01*
X908030Y1160000D01*
X911770Y1156670D01*
X915500Y1155000D01*
X919230D01*
X922970Y1156670D01*
X926170Y1159170D01*
X928830Y1162500D01*
G01X944870Y1196670D02*
X948070Y1201670D01*
X951800Y1204170D01*
X956070Y1205000D01*
X961400Y1203330D01*
X965130Y1199170D01*
X966200Y1194170D01*
X965670Y1189170D01*
X963530Y1185000D01*
X952870Y1176670D01*
X948070Y1170830D01*
X944870Y1162500D01*
X943800Y1155000D01*
X966200D01*
G01X994500Y1205000D02*
X990230Y1203330D01*
X987030Y1199170D01*
X984900Y1194170D01*
X983300Y1187500D01*
X982770Y1180000D01*
X983300Y1172500D01*
X984900Y1165830D01*
X987030Y1160830D01*
X990230Y1156670D01*
X994500Y1155000D01*
X998770Y1156670D01*
X1001970Y1160830D01*
X1004100Y1165830D01*
X1005700Y1172500D01*
X1006230Y1180000D01*
X1005700Y1187500D01*
X1004100Y1194170D01*
X1001970Y1199170D01*
X998770Y1203330D01*
X994500Y1205000D01*
G01X1025000Y1049670D02*
X1075000D01*
Y1036330D01*
X1072500Y1032070D01*
X1069170Y1029400D01*
X1062500Y1028330D01*
X1055830Y1029400D01*
X1051670Y1032600D01*
X1049170Y1036330D01*
Y1049670D01*
G01Y1036330D02*
X1025000Y1028330D01*
G01Y999500D02*
X1075000D01*
X1065000Y1005900D01*
G01X1025000D02*
Y993100D01*
G01Y960000D02*
X1075000D01*
X1065000Y966400D01*
G01X1025000D02*
Y953600D01*
G01X1272230Y1240830D02*
X1269030Y1243330D01*
X1265300Y1245000D01*
X1261030D01*
X1256230Y1242500D01*
X1252500Y1238330D01*
X1249830Y1233330D01*
X1247700Y1225000D01*
X1247170Y1217500D01*
X1248230Y1210000D01*
X1249830Y1205000D01*
X1253030Y1200000D01*
X1256770Y1196670D01*
X1260500Y1195000D01*
X1264230D01*
X1267970Y1196670D01*
X1271170Y1199170D01*
X1273830Y1202500D01*
G01X1287730Y1195000D02*
Y1245000D01*
X1312270Y1195000D01*
Y1245000D01*
G01X1339500Y1195000D02*
Y1245000D01*
X1333100Y1235000D01*
G01Y1195000D02*
X1345900D01*
G01X1472830Y118770D02*
X1475330Y121970D01*
X1477000Y125700D01*
Y129970D01*
X1474500Y134770D01*
X1470330Y138500D01*
X1465330Y141170D01*
X1457000Y143300D01*
X1449500Y143830D01*
X1442000Y142770D01*
X1437000Y141170D01*
X1432000Y137970D01*
X1428670Y134230D01*
X1427000Y130500D01*
Y126770D01*
X1428670Y123030D01*
X1431170Y119830D01*
X1434500Y117170D01*
G01X1427000Y91000D02*
X1477000D01*
X1467000Y97400D01*
G01X1427000D02*
Y84600D01*
G01X1434500Y63230D02*
X1430330Y60030D01*
X1427830Y56300D01*
X1427000Y51500D01*
X1428670Y46700D01*
X1432000Y42970D01*
X1437830Y40300D01*
X1444500Y39770D01*
X1451170Y40830D01*
X1455330Y43500D01*
X1458670Y47230D01*
X1459500Y50970D01*
X1458670Y54700D01*
X1455330Y59500D01*
X1477000Y57900D01*
Y43500D01*
G01X1457830Y803770D02*
X1460330Y806970D01*
X1462000Y810700D01*
Y814970D01*
X1459500Y819770D01*
X1455330Y823500D01*
X1450330Y826170D01*
X1442000Y828300D01*
X1434500Y828830D01*
X1427000Y827770D01*
X1422000Y826170D01*
X1417000Y822970D01*
X1413670Y819230D01*
X1412000Y815500D01*
Y811770D01*
X1413670Y808030D01*
X1416170Y804830D01*
X1419500Y802170D01*
G01X1453670Y786130D02*
X1458670Y782930D01*
X1461170Y779200D01*
X1462000Y774930D01*
X1460330Y769600D01*
X1456170Y765870D01*
X1451170Y764800D01*
X1446170Y765330D01*
X1442000Y767470D01*
X1433670Y778130D01*
X1427830Y782930D01*
X1419500Y786130D01*
X1412000Y787200D01*
Y764800D01*
G01X1453670Y746630D02*
X1458670Y743430D01*
X1461170Y739700D01*
X1462000Y735430D01*
X1460330Y730100D01*
X1456170Y726370D01*
X1451170Y725300D01*
X1446170Y725830D01*
X1442000Y727970D01*
X1433670Y738630D01*
X1427830Y743430D01*
X1419500Y746630D01*
X1412000Y747700D01*
Y725300D01*
G01X1422170Y391230D02*
X1419670Y388030D01*
X1418000Y384300D01*
Y380030D01*
X1420500Y375230D01*
X1424670Y371500D01*
X1429670Y368830D01*
X1438000Y366700D01*
X1445500Y366170D01*
X1453000Y367230D01*
X1458000Y368830D01*
X1463000Y372030D01*
X1466330Y375770D01*
X1468000Y379500D01*
Y383230D01*
X1466330Y386970D01*
X1463830Y390170D01*
X1460500Y392830D01*
G01X1468000Y419000D02*
X1418000D01*
X1428000Y412600D01*
G01X1468000D02*
Y425400D01*
G01X1447170Y448370D02*
X1441330Y452100D01*
X1438000Y455300D01*
X1436330Y459570D01*
X1438000Y463300D01*
X1441330Y465970D01*
X1446330Y468100D01*
X1452170Y468630D01*
X1457170Y468100D01*
X1462170Y465970D01*
X1466330Y462770D01*
X1468000Y459030D01*
X1466330Y454770D01*
X1461330Y451030D01*
X1453830Y448900D01*
X1445500Y448370D01*
X1434670Y449430D01*
X1428830Y451030D01*
X1423000Y453700D01*
X1418830Y457430D01*
X1418000Y461170D01*
X1419670Y464900D01*
X1423830Y467570D01*
G01X1650000Y475330D02*
X1600000D01*
Y488670D01*
X1602500Y492930D01*
X1605830Y495600D01*
X1612500Y496670D01*
X1619170Y495600D01*
X1623330Y492400D01*
X1625830Y488670D01*
Y475330D01*
G01Y488670D02*
X1650000Y496670D01*
G01Y525500D02*
X1649170Y529230D01*
X1646670Y533500D01*
X1642500Y536170D01*
X1636670Y537230D01*
X1630830Y536170D01*
X1625830Y532970D01*
X1623330Y528170D01*
Y522830D01*
X1621670Y519630D01*
X1617500Y516970D01*
X1611670Y515900D01*
X1605830Y517500D01*
X1601670Y521230D01*
X1600000Y525500D01*
X1601670Y529770D01*
X1605830Y533500D01*
X1611670Y535100D01*
X1617500Y534030D01*
X1621670Y531370D01*
X1623330Y528170D01*
Y522830D01*
X1625830Y518030D01*
X1630830Y514830D01*
X1636670Y513770D01*
X1642500Y514830D01*
X1646670Y517500D01*
X1649170Y521770D01*
X1650000Y525500D01*
G01X1334830Y940000D02*
Y990000D01*
X1348170D01*
X1352430Y987500D01*
X1355100Y984170D01*
X1356170Y977500D01*
X1355100Y970830D01*
X1351900Y966670D01*
X1348170Y964170D01*
X1334830D01*
G01X1348170D02*
X1356170Y940000D01*
G01X1385000D02*
Y990000D01*
X1378600Y980000D01*
G01Y940000D02*
X1391400D01*
G01X1412770Y947500D02*
X1415970Y943330D01*
X1419700Y940830D01*
X1424500Y940000D01*
X1429300Y941670D01*
X1433030Y945000D01*
X1435700Y950830D01*
X1436230Y957500D01*
X1435170Y964170D01*
X1432500Y968330D01*
X1428770Y971670D01*
X1425030Y972500D01*
X1421300Y971670D01*
X1416500Y968330D01*
X1418100Y990000D01*
X1432500D01*
G01X1799300Y-648330D02*
X1803570Y-652500D01*
X1808370Y-655000D01*
X1812630D01*
X1816900Y-652500D01*
X1820100Y-648330D01*
X1821700Y-642500D01*
X1820630Y-636670D01*
X1817970Y-631670D01*
X1813170Y-628330D01*
X1806770Y-626670D01*
X1803030Y-623330D01*
X1801430Y-617500D01*
X1802500Y-611670D01*
X1805170Y-607500D01*
X1808900Y-605000D01*
X1812630D01*
X1816370Y-606670D01*
X1819570Y-610830D01*
G01X1834000Y-605000D02*
X1841470Y-655000D01*
X1850000Y-605000D01*
X1858530Y-655000D01*
X1866000Y-605000D01*
G01X1889500Y-655000D02*
Y-605000D01*
X1883100Y-615000D01*
G01Y-655000D02*
X1895900D01*
G01X1728730Y-39670D02*
X1725530Y-37170D01*
X1721800Y-35500D01*
X1717530D01*
X1712730Y-38000D01*
X1709000Y-42170D01*
X1706330Y-47170D01*
X1704200Y-55500D01*
X1703670Y-63000D01*
X1704730Y-70500D01*
X1706330Y-75500D01*
X1709530Y-80500D01*
X1713270Y-83830D01*
X1717000Y-85500D01*
X1720730D01*
X1724470Y-83830D01*
X1727670Y-81330D01*
X1730330Y-78000D01*
G01X1756500Y-85500D02*
Y-35500D01*
X1750100Y-45500D01*
G01Y-85500D02*
X1762900D01*
G01X1786930Y-79670D02*
X1790670Y-83830D01*
X1794930Y-85500D01*
X1799200Y-83830D01*
X1802930Y-78830D01*
X1805600Y-71330D01*
X1806670Y-63830D01*
Y-54670D01*
X1805600Y-47170D01*
X1802930Y-40500D01*
X1799730Y-37170D01*
X1796000Y-35500D01*
X1791730Y-37170D01*
X1788530Y-40500D01*
X1786400Y-45500D01*
X1785330Y-52170D01*
X1786400Y-58000D01*
X1789070Y-63830D01*
X1792270Y-67170D01*
X1796000Y-68000D01*
X1800270Y-66330D01*
X1803470Y-62170D01*
X1806670Y-54670D01*
G01X2102170Y26230D02*
X2099670Y23030D01*
X2098000Y19300D01*
Y15030D01*
X2100500Y10230D01*
X2104670Y6500D01*
X2109670Y3830D01*
X2118000Y1700D01*
X2125500Y1170D01*
X2133000Y2230D01*
X2138000Y3830D01*
X2143000Y7030D01*
X2146330Y10770D01*
X2148000Y14500D01*
Y18230D01*
X2146330Y21970D01*
X2143830Y25170D01*
X2140500Y27830D01*
G01X2148000Y54000D02*
X2098000D01*
X2108000Y47600D01*
G01X2148000D02*
Y60400D01*
G01Y93500D02*
X2147170Y97230D01*
X2144670Y101500D01*
X2140500Y104170D01*
X2134670Y105230D01*
X2128830Y104170D01*
X2123830Y100970D01*
X2121330Y96170D01*
Y90830D01*
X2119670Y87630D01*
X2115500Y84970D01*
X2109670Y83900D01*
X2103830Y85500D01*
X2099670Y89230D01*
X2098000Y93500D01*
X2099670Y97770D01*
X2103830Y101500D01*
X2109670Y103100D01*
X2115500Y102030D01*
X2119670Y99370D01*
X2121330Y96170D01*
Y90830D01*
X2123830Y86030D01*
X2128830Y82830D01*
X2134670Y81770D01*
X2140500Y82830D01*
X2144670Y85500D01*
X2147170Y89770D01*
X2148000Y93500D01*
G01X1807110Y195000D02*
Y159170D01*
X1809240Y151670D01*
X1813510Y146670D01*
X1818840Y145000D01*
X1824170Y146670D01*
X1828440Y151670D01*
X1830570Y159170D01*
Y195000D01*
G01X1859430Y155000D02*
X1862630Y149170D01*
X1866890Y145830D01*
X1871690Y145000D01*
X1875960Y145830D01*
X1880230Y150000D01*
X1882890Y155000D01*
X1883430Y160000D01*
X1882360Y165830D01*
X1878630Y170000D01*
X1874890Y171670D01*
X1870090D01*
G01X1874890D02*
X1878090Y174170D01*
X1880760Y178330D01*
X1881830Y183330D01*
X1880760Y188330D01*
X1878090Y192500D01*
X1873290Y195000D01*
X1868490Y194170D01*
X1863690Y190830D01*
G01X1884580Y420000D02*
Y470000D01*
X1897920D01*
X1902180Y467500D01*
X1904850Y464170D01*
X1905920Y457500D01*
X1904850Y450830D01*
X1901650Y446670D01*
X1897920Y444170D01*
X1884580D01*
G01X1897920D02*
X1905920Y420000D01*
G01X1925680Y425830D02*
X1929420Y421670D01*
X1933680Y420000D01*
X1937950Y421670D01*
X1941680Y426670D01*
X1944350Y434170D01*
X1945420Y441670D01*
Y450830D01*
X1944350Y458330D01*
X1941680Y465000D01*
X1938480Y468330D01*
X1934750Y470000D01*
X1930480Y468330D01*
X1927280Y465000D01*
X1925150Y460000D01*
X1924080Y453330D01*
X1925150Y447500D01*
X1927820Y441670D01*
X1931020Y438330D01*
X1934750Y437500D01*
X1939020Y439170D01*
X1942220Y443330D01*
X1945420Y450830D01*
G01X1862490Y643550D02*
Y693550D01*
X1873150D01*
X1877420Y691050D01*
X1880620Y687720D01*
X1883290Y682720D01*
X1885420Y676880D01*
X1885950Y668550D01*
X1885420Y660220D01*
X1883290Y654380D01*
X1880620Y649380D01*
X1877420Y646050D01*
X1873150Y643550D01*
X1862490D01*
G01X1901990Y653550D02*
X1905190Y647720D01*
X1909450Y644380D01*
X1914250Y643550D01*
X1918520Y644380D01*
X1922790Y648550D01*
X1925450Y653550D01*
X1925990Y658550D01*
X1924920Y664380D01*
X1921190Y668550D01*
X1917450Y670220D01*
X1912650D01*
G01X1917450D02*
X1920650Y672720D01*
X1923320Y676880D01*
X1924390Y681880D01*
X1923320Y686880D01*
X1920650Y691050D01*
X1915850Y693550D01*
X1911050Y692720D01*
X1906250Y689380D01*
G01X2134580Y945000D02*
X2137250Y940000D01*
X2140450Y936670D01*
X2144180Y935000D01*
X2148450Y936670D01*
X2151650Y940000D01*
X2154850Y945000D01*
X2155920Y951670D01*
Y985000D01*
G01X2174620Y976670D02*
X2177820Y981670D01*
X2181550Y984170D01*
X2185820Y985000D01*
X2191150Y983330D01*
X2194880Y979170D01*
X2195950Y974170D01*
X2195420Y969170D01*
X2193280Y965000D01*
X2182620Y956670D01*
X2177820Y950830D01*
X2174620Y942500D01*
X2173550Y935000D01*
X2195950D01*
G01X2154580Y245000D02*
Y295000D01*
X2167920D01*
X2172180Y292500D01*
X2174850Y289170D01*
X2175920Y282500D01*
X2174850Y275830D01*
X2171650Y271670D01*
X2167920Y269170D01*
X2154580D01*
G01X2167920D02*
X2175920Y245000D01*
G01X2203680D02*
X2204750Y255830D01*
X2206350Y265000D01*
X2208480Y273330D01*
X2211150Y282500D01*
X2215420Y295000D01*
X2194080D01*
G01X2532230Y140830D02*
X2529030Y143330D01*
X2525300Y145000D01*
X2521030D01*
X2516230Y142500D01*
X2512500Y138330D01*
X2509830Y133330D01*
X2507700Y125000D01*
X2507170Y117500D01*
X2508230Y110000D01*
X2509830Y105000D01*
X2513030Y100000D01*
X2516770Y96670D01*
X2520500Y95000D01*
X2524230D01*
X2527970Y96670D01*
X2531170Y99170D01*
X2533830Y102500D01*
G01X2547730Y95000D02*
Y145000D01*
X2572270Y95000D01*
Y145000D01*
G01X2589370Y136670D02*
X2592570Y141670D01*
X2596300Y144170D01*
X2600570Y145000D01*
X2605900Y143330D01*
X2609630Y139170D01*
X2610700Y134170D01*
X2610170Y129170D01*
X2608030Y125000D01*
X2597370Y116670D01*
X2592570Y110830D01*
X2589370Y102500D01*
X2588300Y95000D01*
X2610700D01*
G01X2452510Y686450D02*
Y636450D01*
X2441850D01*
X2437580Y638950D01*
X2434380Y642280D01*
X2431710Y647280D01*
X2429580Y653120D01*
X2429050Y661450D01*
X2429580Y669780D01*
X2431710Y675620D01*
X2434380Y680620D01*
X2437580Y683950D01*
X2441850Y686450D01*
X2452510D01*
G01X2411410Y644780D02*
X2408210Y639780D01*
X2404480Y637280D01*
X2400210Y636450D01*
X2394880Y638120D01*
X2391150Y642280D01*
X2390080Y647280D01*
X2390610Y652280D01*
X2392750Y656450D01*
X2403410Y664780D01*
X2408210Y670620D01*
X2411410Y678950D01*
X2412480Y686450D01*
X2390080D01*
M02*
