M48
METRIC,TZ
T01C.3
T02C.762
T03C.8382
T04C.9
T05C1.1001
T06C3.
;LEADER: 12 
;HEADER: 
;CODE  : ASCII 
;FILE  : ECG_v5-1-2.drl for  ... layers TOP and BOTTOM
;DESIGN: ECG_v5.brd
;T01 Holesize 1. = 0.300000 Tolerance = +0.000000/-0.000000 PLATED MM Quantity = 73
;T02 Holesize 2. = 0.762000 Tolerance = +0.000000/-0.000000 PLATED MM Quantity = 2
;T03 Holesize 3. = 0.838200 Tolerance = +0.000000/-0.000000 PLATED MM Quantity = 2
;T04 Holesize 4. = 0.900000 Tolerance = +0.000000/-0.000000 PLATED MM Quantity = 2
;T05 Holesize 5. = 1.100100 Tolerance = +0.000000/-0.000000 PLATED MM Quantity = 8
%
G90
T01
X13750Y-6700
X6100Y5425
X1200Y7350
X2500Y8550
X1025Y8625
X9200Y9850
X2425Y9700
X3475Y13350
X9250Y13425
X3925Y4575
X6050Y4250
X100Y350
X-5600Y9400
X1050Y12500
X-250Y12352
X-2550Y12352
X-1400Y12352
X-8650Y12650
X-10250Y9400
X-9900Y10600
X-12360Y9400
X-16300Y10150
X26375Y6025
X15325Y7125
X13700Y6291
X14450Y5689
X13425Y4825
X9575Y7175
X10550Y6398
X11900Y6398
X6773Y9427
X5373Y9427
X6773Y8027
X5373Y8027
X-3725Y5025
X-3725Y7575
X-1175Y7575
X-2478Y6272
X-1175Y6300
X-1200Y5025
X-2450Y5025
X-3750Y6300
X-2450Y7575
X-13300Y6350
X-12375Y5100
X22425Y3700
X16000Y1750
X12853Y100
X12850Y3300
X8447Y0
X7075Y3100
X6900Y-200
X5750Y625
X1650Y1950
X660Y3862
X3225Y2700
X2300Y2600
X-3200Y0
X-3950Y875
X-5775Y0
X-4700Y-75
X-12775Y2863
X-13250Y3850
X21250Y-952
X22350Y-175
X20225Y-150
X15500Y-800
X16025Y125
X14515Y-3965
X14402Y-2748
X-15200Y-3550
X21825Y4525
X21575Y6650
T02
X26148Y50
X26148Y2050
T03
X17150Y-6162
X20150Y-6162
T04
X12950Y11580
X12950Y14120
T05
X-1600Y-5350
X-4100Y-5350
X-6600Y-5350
X-9200Y-5350
X-1600Y-2750
X-4100Y-2750
X-6600Y-2750
X-9200Y-2750
M30
